
<svg width="180" height="180" viewBox="0 0 180 180" xmlns="http://www.w3.org/2000/svg">
  <defs>
    <linearGradient id="bg" x1="0%" y1="0%" x2="100%" y2="100%">
      <stop offset="0%" style="stop-color:#2563eb;stop-opacity:1" />
      <stop offset="100%" style="stop-color:#1e40af;stop-opacity:1" />
    </linearGradient>
  </defs>

  <!-- Background with rounded corners -->
  <rect width="180" height="180" rx="45" fill="url(#bg)"/>

  <!-- Calculator body -->
  <rect x="27" y="27"
        width="125.99999999999999" height="125.99999999999999"
        rx="14.4" fill="white"/>

  <!-- Display area -->
  <rect x="39.6" y="39.6"
        width="100.80000000000001" height="27"
        rx="7.2" fill="#dbeafe"/>

  <!-- Calculator buttons (3x3 grid) -->
  <rect x="46.800000000000004" y="81" width="21.599999999999998" height="21.599999999999998" rx="4.319999999999999" fill="#2563eb"/>
  <rect x="79.2" y="81" width="21.599999999999998" height="21.599999999999998" rx="4.319999999999999" fill="#2563eb"/>
  <rect x="111.6" y="81" width="21.599999999999998" height="21.599999999999998" rx="4.319999999999999" fill="#2563eb"/>
  <rect x="46.800000000000004" y="113.4" width="21.599999999999998" height="21.599999999999998" rx="4.319999999999999" fill="#2563eb"/>
  <rect x="79.2" y="113.4" width="21.599999999999998" height="21.599999999999998" rx="4.319999999999999" fill="#2563eb"/>
  <rect x="111.6" y="113.4" width="21.599999999999998" height="21.599999999999998" rx="4.319999999999999" fill="#2563eb"/>
  <rect x="46.800000000000004" y="145.8" width="21.599999999999998" height="21.599999999999998" rx="4.319999999999999" fill="#2563eb"/>
  <rect x="79.2" y="145.8" width="21.599999999999998" height="21.599999999999998" rx="4.319999999999999" fill="#2563eb"/>
  <rect x="111.6" y="145.8" width="21.599999999999998" height="21.599999999999998" rx="4.319999999999999" fill="#2563eb"/>
</svg>
