
<svg width="32" height="32" viewBox="0 0 32 32" xmlns="http://www.w3.org/2000/svg">
  <defs>
    <linearGradient id="bg" x1="0%" y1="0%" x2="100%" y2="100%">
      <stop offset="0%" style="stop-color:#2563eb;stop-opacity:1" />
      <stop offset="100%" style="stop-color:#1e40af;stop-opacity:1" />
    </linearGradient>
  </defs>

  <!-- Background with rounded corners -->
  <rect width="32" height="32" rx="8" fill="url(#bg)"/>

  <!-- Calculator body -->
  <rect x="4.8" y="4.8"
        width="22.4" height="22.4"
        rx="2.56" fill="white"/>

  <!-- Display area -->
  <rect x="7.04" y="7.04"
        width="17.92" height="4.8"
        rx="1.28" fill="#dbeafe"/>

  <!-- Calculator buttons (3x3 grid) -->
  <rect x="8.32" y="14.4" width="3.84" height="3.84" rx="0.768" fill="#2563eb"/>
  <rect x="14.08" y="14.4" width="3.84" height="3.84" rx="0.768" fill="#2563eb"/>
  <rect x="19.84" y="14.4" width="3.84" height="3.84" rx="0.768" fill="#2563eb"/>
  <rect x="8.32" y="20.16" width="3.84" height="3.84" rx="0.768" fill="#2563eb"/>
  <rect x="14.08" y="20.16" width="3.84" height="3.84" rx="0.768" fill="#2563eb"/>
  <rect x="19.84" y="20.16" width="3.84" height="3.84" rx="0.768" fill="#2563eb"/>
  <rect x="8.32" y="25.92" width="3.84" height="3.84" rx="0.768" fill="#2563eb"/>
  <rect x="14.08" y="25.92" width="3.84" height="3.84" rx="0.768" fill="#2563eb"/>
  <rect x="19.84" y="25.92" width="3.84" height="3.84" rx="0.768" fill="#2563eb"/>
</svg>
