
<svg width="192" height="192" viewBox="0 0 192 192" xmlns="http://www.w3.org/2000/svg">
  <defs>
    <linearGradient id="bg" x1="0%" y1="0%" x2="100%" y2="100%">
      <stop offset="0%" style="stop-color:#2563eb;stop-opacity:1" />
      <stop offset="100%" style="stop-color:#1e40af;stop-opacity:1" />
    </linearGradient>
  </defs>

  <!-- Background with rounded corners -->
  <rect width="192" height="192" rx="48" fill="url(#bg)"/>

  <!-- Calculator body -->
  <rect x="28.799999999999997" y="28.799999999999997"
        width="134.39999999999998" height="134.39999999999998"
        rx="15.36" fill="white"/>

  <!-- Display area -->
  <rect x="42.24" y="42.24"
        width="107.52000000000001" height="28.799999999999997"
        rx="7.68" fill="#dbeafe"/>

  <!-- Calculator buttons (3x3 grid) -->
  <rect x="49.92" y="86.4" width="23.04" height="23.04" rx="4.608" fill="#2563eb"/>
  <rect x="84.48" y="86.4" width="23.04" height="23.04" rx="4.608" fill="#2563eb"/>
  <rect x="119.04" y="86.4" width="23.04" height="23.04" rx="4.608" fill="#2563eb"/>
  <rect x="49.92" y="120.96000000000001" width="23.04" height="23.04" rx="4.608" fill="#2563eb"/>
  <rect x="84.48" y="120.96000000000001" width="23.04" height="23.04" rx="4.608" fill="#2563eb"/>
  <rect x="119.04" y="120.96000000000001" width="23.04" height="23.04" rx="4.608" fill="#2563eb"/>
  <rect x="49.92" y="155.52" width="23.04" height="23.04" rx="4.608" fill="#2563eb"/>
  <rect x="84.48" y="155.52" width="23.04" height="23.04" rx="4.608" fill="#2563eb"/>
  <rect x="119.04" y="155.52" width="23.04" height="23.04" rx="4.608" fill="#2563eb"/>
</svg>
