
<svg width="512" height="512" viewBox="0 0 512 512" xmlns="http://www.w3.org/2000/svg">
  <defs>
    <linearGradient id="bg" x1="0%" y1="0%" x2="100%" y2="100%">
      <stop offset="0%" style="stop-color:#2563eb;stop-opacity:1" />
      <stop offset="100%" style="stop-color:#1e40af;stop-opacity:1" />
    </linearGradient>
  </defs>

  <!-- Background with rounded corners -->
  <rect width="512" height="512" rx="128" fill="url(#bg)"/>

  <!-- Calculator body -->
  <rect x="76.8" y="76.8"
        width="358.4" height="358.4"
        rx="40.96" fill="white"/>

  <!-- Display area -->
  <rect x="112.64" y="112.64"
        width="286.72" height="76.8"
        rx="20.48" fill="#dbeafe"/>

  <!-- Calculator buttons (3x3 grid) -->
  <rect x="133.12" y="230.4" width="61.44" height="61.44" rx="12.288" fill="#2563eb"/>
  <rect x="225.28" y="230.4" width="61.44" height="61.44" rx="12.288" fill="#2563eb"/>
  <rect x="317.44" y="230.4" width="61.44" height="61.44" rx="12.288" fill="#2563eb"/>
  <rect x="133.12" y="322.56" width="61.44" height="61.44" rx="12.288" fill="#2563eb"/>
  <rect x="225.28" y="322.56" width="61.44" height="61.44" rx="12.288" fill="#2563eb"/>
  <rect x="317.44" y="322.56" width="61.44" height="61.44" rx="12.288" fill="#2563eb"/>
  <rect x="133.12" y="414.72" width="61.44" height="61.44" rx="12.288" fill="#2563eb"/>
  <rect x="225.28" y="414.72" width="61.44" height="61.44" rx="12.288" fill="#2563eb"/>
  <rect x="317.44" y="414.72" width="61.44" height="61.44" rx="12.288" fill="#2563eb"/>
</svg>
